# xmcd
#
# Track frame offsets:
#	150
#	16632
#	33446
#	49699
#	63535
#	78864
#	92748
#	109233
#	125881
#	142005
#	155738
#	171068
#
# Disc length: 2466 seconds
#
# Revision: 1
# Processed by: cddbd v1.5.2PL0 Copyright (c) Steve Scherf et al.
# Submitted via: audiograbber 1.83.01
#
DISCID=9e09a00c
DTITLE=Brooks and Dunn - 20124
DYEAR=1900
DGENRE=
TTITLE0=Rock My World (Little Country Girl) w\\ Vocals
TTITLE1=A Man This Lonely
TTITLE2=My Maria w\\Vocals
TTITLE3=My Next Broken Heart w\\vocals
TTITLE4=Honky Tonk Truth w\\vocals
TTITLE5=Hard Workin' Man w\\vocals
TTITLE6=Rock My World (Little Country Girl)
TTITLE7=A Man This Lonely
TTITLE8=My Maria
TTITLE9=My Next Broken Heart
TTITLE10=Honky Tonk Truth
TTITLE11=Hard Workin' Man
EXTD=
EXTT0=
EXTT1=
EXTT2=
EXTT3=
EXTT4=
EXTT5=
EXTT6=
EXTT7=
EXTT8=
EXTT9=
EXTT10=
EXTT11=
PLAYORDER=
